<svg width="35" height="25" viewBox="0 0 35 25" fill="none" xmlns="http://www.w3.org/2000/svg">
<g clip-path="url(#clip0_2103_13)">
<path d="M11.9225 12.9421C11.9474 12.9421 11.9722 12.9421 12.0021 12.9421C12.012 12.9421 12.022 12.9421 12.0319 12.9421C12.0469 12.9421 12.0668 12.9421 12.0817 12.9421C13.539 12.9173 14.7178 12.4049 15.5883 11.4251C17.5032 9.2664 17.1849 5.56581 17.1501 5.21266C17.0257 2.56157 15.7723 1.29322 14.7377 0.701322C13.9668 0.258644 13.0665 0.0198957 12.0618 0H12.027C12.022 0 12.012 0 12.0071 0H11.9772C11.4251 0 10.3408 0.0895305 9.30126 0.681426C8.25673 1.27332 6.98341 2.54167 6.85906 5.21266C6.82425 5.56581 6.50592 9.2664 8.42087 11.4251C9.28633 12.4049 10.4652 12.9173 11.9225 12.9421ZM8.1871 5.33701C8.1871 5.32209 8.19207 5.30717 8.19207 5.29722C8.35621 1.73092 10.8879 1.34793 11.9722 1.34793H11.9921C12.0021 1.34793 12.017 1.34793 12.0319 1.34793C13.3749 1.37777 15.6579 1.9249 15.8121 5.29722C15.8121 5.31214 15.8121 5.32706 15.8171 5.33701C15.8221 5.37183 16.1702 8.75409 14.5885 10.5348C13.9618 11.241 13.1262 11.5892 12.027 11.5992C12.017 11.5992 12.012 11.5992 12.0021 11.5992C11.9921 11.5992 11.9872 11.5992 11.9772 11.5992C10.883 11.5892 10.0424 11.241 9.42063 10.5348C7.8439 8.76404 8.18213 5.36685 8.1871 5.33701Z" fill="black"/>
<path d="M22.2237 19.0799C22.2237 19.0749 22.2237 19.0699 22.2237 19.065C22.2237 19.0252 22.2187 18.9854 22.2187 18.9406C22.1888 17.9558 22.1242 15.6529 19.9655 14.9167C19.9506 14.9117 19.9307 14.9068 19.9158 14.9018C17.6725 14.3298 15.8073 13.0366 15.7874 13.0217C15.484 12.8078 15.0662 12.8824 14.8523 13.1858C14.6384 13.4892 14.713 13.907 15.0165 14.1209C15.101 14.1806 17.0806 15.5584 19.5576 16.195C20.7166 16.6079 20.8459 17.8464 20.8807 18.9804C20.8807 19.0252 20.8807 19.065 20.8857 19.1048C20.8906 19.5524 20.8608 20.2438 20.7812 20.6417C19.9754 21.0993 16.817 22.681 12.0122 22.681C7.2273 22.681 4.04897 21.0943 3.23822 20.6367C3.15864 20.2388 3.12382 19.5474 3.13377 19.0998C3.13377 19.06 3.13874 19.0202 3.13874 18.9754C3.17356 17.8414 3.30288 16.6029 4.46181 16.19C6.93882 15.5534 8.91843 14.1706 9.00299 14.1159C9.3064 13.902 9.38101 13.4842 9.16713 13.1808C8.95325 12.8774 8.53544 12.8028 8.23203 13.0167C8.21214 13.0316 6.35687 14.3248 4.10368 14.8968C4.08379 14.9018 4.06887 14.9068 4.05394 14.9117C1.89527 15.6529 1.8306 17.9558 1.80076 18.9356C1.80076 18.9804 1.80076 19.0202 1.79579 19.06C1.79579 19.065 1.79579 19.0699 1.79579 19.0749C1.79081 19.3336 1.78584 20.6616 2.04946 21.3281C2.0992 21.4574 2.18873 21.5669 2.3081 21.6415C2.45732 21.7409 6.03356 24.019 12.0172 24.019C18.0008 24.019 21.577 21.736 21.7263 21.6415C21.8407 21.5669 21.9352 21.4574 21.9849 21.3281C22.2336 20.6666 22.2286 19.3385 22.2237 19.0799Z" fill="black"/>
</g>
<path d="M27.2454 18.9118H33.7361M24 7H33.7361" stroke="black" stroke-width="1.5" stroke-linecap="round"/>
<defs>
<clipPath id="clip0_2103_13">
<rect width="24.019" height="24.019" fill="white"/>
</clipPath>
</defs>
</svg>
